<?xml version="1.0" standalone="no"?>
<!DOCTYPE svg PUBLIC "-//W3C//DTD SVG 1.1//EN" "http://www.w3.org/Graphics/SVG/1.1/DTD/svg11.dtd" >
<!--
2013-9-30: Created.
-->
<svg>
<metadata>
Created by iconfont
</metadata>
<defs>

<font id="iconfont" horiz-adv-x="1024" >
  <font-face
    font-family="iconfont"
    font-weight="500"
    font-stretch="normal"
    units-per-em="1024"
    ascent="896"
    descent="-128"
  />
    <missing-glyph />
    
    <glyph glyph-name="Anouncement" unicode="&#58948;" d="M64.698182 530.525091h62.557091V549.701818c0 29.463273 23.226182 53.480727 51.665454 53.480727h187.997091c7.866182 15.034182 19.642182 25.925818 35.793455 25.925819 274.013091 0 520.238545 237.381818 520.238545 237.381818a51.386182 51.386182 0 0 0 75.822546-45.242182v-873.937455a51.432727 51.432727 0 0 0-77.684364-44.218181s-227.467636 284.113455-521.541818 284.113454c-15.080727 0-25.879273 10.146909-33.047273 24.203637h-4.514909c-1.489455-65.768727 13.870545-135.819636 28.16-186.321455a69.492364 69.492364 0 0 0-66.653091-88.250182c-15.685818 0-31.325091 5.445818-44.218182 16.058182-75.450182 62.696727-103.703273 134.795636-114.176 184.226909a296.727273 296.727273 0 0 0-6.330182 74.193455 244.130909 244.130909 0 0 0-11.217454 15.918545c-20.433455 31.325091-20.433455 43.426909-20.433455 49.198546v24.66909h-62.370909a39.237818 39.237818 0 0 0-39.284363 39.284364v150.807273c0 21.736727 17.547636 39.330909 39.284363 39.330909z m368.546909-265.867636c66.885818-4.235636 134.842182-20.852364 202.565818-49.524364 61.44-26.065455 122.740364-62.184727 182.318546-107.333818a1075.013818 1075.013818 0 0 0 102.213818-88.389818V760.785455a1188.352 1188.352 0 0 0-113.245091-79.732364c-60.229818-37.329455-121.018182-67.211636-180.642909-88.669091-65.675636-23.691636-130.280727-37.422545-192.465455-40.96v-1.861818a38.4 38.4 0 0 0-0.651636-7.168v-276.526546c-0.093091-0.465455-0.093091-0.791273-0.093091-1.210181zM205.730909 282.996364c3.397818-6.656 10.472727-17.594182 14.754909-23.04a39.470545 39.470545 0 0 0 17.780364-40.261819c0-0.186182-4.514909-28.113455 3.584-66.327272 9.355636-44.497455 30.999273-84.247273 64.232727-118.458182-15.825455 63.813818-29.090909 145.873455-19.735273 220.672a39.330909 39.330909 0 0 0 38.958546 34.397091h27.927273v32.581818c0 3.630545 0.558545 7.121455 1.396363 10.379636V524.613818H205.777455v-241.617454z m-101.794909 96.628363h23.272727V451.956364h-23.272727v-72.331637z"  horiz-adv-x="1024" />

    
    <glyph glyph-name="setting" unicode="&#58949;" d="M1002.682182 462.987636l-4.142546 26.158546-79.965091 26.763636a422.632727 422.632727 0 0 1-26.065454 62.929455l37.701818 75.403636-15.453091 21.597091a509.765818 509.765818 0 0 1-111.616 111.383273l-21.457454 15.453091-75.403637-37.701819a427.473455 427.473455 0 0 1-62.929454 26.065455L616.727273 870.772364l-25.972364 4.049454A493.614545 493.614545 0 0 1 512 881.570909c-24.203636 0-49.338182-2.187636-78.894545-6.888727l-26.158546-4.142546-26.624-80.058181a442.693818 442.693818 0 0 1-62.929454-25.972364l-75.264 37.841454-21.504-15.499636a499.991273 499.991273 0 0 1-111.476364-111.336727l-15.499636-21.643637 37.701818-75.403636c-10.24-20.154182-18.944-41.192727-25.925818-62.836364L25.460364 489.192727l-4.189091-26.158545A501.480727 501.480727 0 0 1 14.615273 384c0-24.436364 2.141091-50.176 6.749091-78.894545l4.142545-26.158546 79.965091-26.717091c6.981818-21.597091 15.685818-42.775273 26.065455-62.976l-37.515637-75.124363 15.499637-21.41091c16.104727-22.481455 32.814545-42.216727 50.920727-60.416 16.896-17.035636 36.677818-33.698909 60.322909-51.060363l21.504-15.499637 75.264 37.748364c20.293818-10.379636 41.332364-19.176727 62.929454-26.065454l26.624-80.058182 26.205091-4.189091c28.672-4.561455 54.458182-6.749091 78.754909-6.749091 24.343273 0 50.082909 2.187636 78.894546 6.749091l26.158545 4.189091 26.624 80.058182c21.410909 6.981818 42.449455 15.685818 62.836364 25.972363l75.403636-37.748363 21.457455 15.499636a462.289455 462.289455 0 0 1 60.322909 51.013818c17.780364 17.780364 34.397091 37.655273 50.967273 60.462546l15.499636 21.59709-37.748364 75.403637c10.333091 20.154182 19.083636 41.192727 26.065455 62.929454l79.965091 26.717091 4.142545 26.205091c4.561455 28.672 6.749091 54.411636 6.749091 78.754909a441.623273 441.623273 0 0 1-6.656 78.754909z m-71.447273-78.103272v-0.558546c0-14.708364-0.977455-29.649455-2.792727-45.707636l-38.632727-12.893091-34.164364-11.543273-10.612364-34.350545c-5.957818-19.874909-13.963636-39.191273-23.645091-57.483637l-16.802909-31.744 34.257455-68.421818a395.682909 395.682909 0 0 0-30.347637-34.257454l-0.186181-0.232728c-10.146909-10.24-21.410909-20.154182-34.071273-30.068363l-68.142546 34.117818-31.650909-16.477091c-18.618182-9.681455-38.306909-17.780364-58.274909-24.110545l-34.117818-10.705455-11.170909-33.792-12.846545-38.632727a370.967273 370.967273 0 0 0-91.415273 0l-12.893091 38.632727-11.217455 34.164364-34.350545 10.565818a327.726545 327.726545 0 0 0-57.483636 23.691636l-31.883637 16.570182-32.162909-16.058182-36.305454-18.106182a395.682909 395.682909 0 0 0-34.304 30.347637 387.630545 387.630545 0 0 0-30.301091 34.257454l34.024727 68.189091-16.570182 31.650909a335.406545 335.406545 0 0 0-23.877818 57.762909l-10.612364 34.397091-72.610909 24.110546a370.967273 370.967273 0 0 0 0 91.415272l72.424727 24.110546 10.565819 34.257454c6.097455 19.735273 14.196364 39.237818 23.877818 57.995637l16.570182 31.650909-15.918546 31.976727-18.106182 36.305455c19.083636 23.784727 40.820364 45.521455 64.605091 64.605091l68.282182-34.164364 31.744 16.709818c18.338909 9.588364 37.841455 17.687273 58.042182 23.970909l34.117818 10.705455 11.357091 33.978182 12.893091 38.586181c16.477091 1.861818 31.418182 2.792727 45.614545 2.792728 14.568727 0 29.649455-0.930909 45.568-2.792728l24.203637-72.331636 34.164363-10.565818c19.828364-6.237091 39.377455-14.336 58.042182-23.924364l31.650909-16.570182 68.142546 34.164364c23.784727-19.083636 45.614545-40.820364 64.930909-64.698182l-34.024727-68.189091 16.337454-31.511272c9.728-18.804364 17.92-38.4 24.110546-58.368l10.705454-34.164364 33.931636-11.357091 38.632728-12.846545c2.048-16.384 2.932364-31.092364 2.699636-45.056z m-419.002182 189.253818A190.370909 190.370909 0 0 1 322.094545 384a190.370909 190.370909 0 0 1 190.138182-190.138182A190.370909 190.370909 0 0 1 702.370909 384a190.370909 190.370909 0 0 1-190.138182 190.138182z m78.848-269.032727a110.917818 110.917818 0 0 0-78.848-32.721455c-29.789091 0-57.856 11.589818-78.894545 32.721455A110.917818 110.917818 0 0 0 400.616727 384c0 29.789091 11.543273 57.809455 32.721455 78.894545a110.917818 110.917818 0 0 0 78.894545 32.721455c29.789091 0 57.809455-11.589818 78.848-32.721455 21.085091-21.178182 32.721455-49.105455 32.721455-78.894545 0-29.789091-11.636364-57.809455-32.721455-78.894545z"  horiz-adv-x="1024" />

    
    <glyph glyph-name="icon_arrow-up" unicode="&#58946;" d="M227.555556 839.111111l568.888888-455.111111-568.888888-455.111111z"  horiz-adv-x="1024" />

    
    <glyph glyph-name="icon_arrow-down" unicode="&#58947;" d="M1638.4 896L819.2-128 0 896z"  horiz-adv-x="1638" />

    
    <glyph glyph-name="zhankai1" unicode="&#58945;" d="M896.384 896C966.848 896 1024 838.72 1024 768.384v-768.768A127.68 127.68 0 0 0 896.384-128H127.616A127.68 127.68 0 0 0 0-0.384V768.384C0 838.848 57.28 896 127.616 896h768.768zM864 448h-640a32 32 0 0 1 0-64h640a32 32 0 1 1 0 64z"  horiz-adv-x="1024" />

    
    <glyph glyph-name="yulan" unicode="&#58944;" d="M440.158316 860.052211a404.210526 404.210526 0 0 0 311.349895-661.989053l216.549052-216.387369a38.265263 38.265263 0 0 0 0.10779-53.733052 37.941895 37.941895 0 0 0-53.733053 0l-216.495158 216.549052A404.210526 404.210526 0 0 0 35.947789 455.841684a404.210526 404.210526 0 0 0 404.210527 404.210527z m0-75.776a327.68 327.68 0 0 1-232.232421-96.202106 327.68 327.68 0 0 1-96.202106-232.232421 327.68 327.68 0 0 1 96.202106-232.232421 327.68 327.68 0 0 1 232.232421-96.14821 326.494316 326.494316 0 0 1 232.232421 96.202105 327.68 327.68 0 0 1 96.14821 232.178526 327.68 327.68 0 0 1-96.202105 232.232421 327.68 327.68 0 0 1-232.178526 96.202106zM440.589474 680.421053l5.12-0.431158c14.982737-2.425263 26.408421-15.413895 26.408421-31.151158v-160.983579h160.983579c17.461895 0 31.582316-14.120421 31.582315-31.582316l-0.377263-5.12a31.582316 31.582316 0 0 0-31.205052-26.408421H472.171789v-160.067368a31.582316 31.582316 0 0 0-31.582315-31.636211l-5.12 0.431158a31.582316 31.582316 0 0 0-26.462316 31.151158v160.067368H247.161263A31.582316 31.582316 0 0 0 215.578947 456.326737l0.431158 5.173895a31.582316 31.582316 0 0 0 31.151158 26.408421h161.845895V648.838737c0 17.461895 14.120421 31.582316 31.582316 31.582316z"  horiz-adv-x="1024" />

    
    <glyph glyph-name="download" unicode="&#58941;" d="M488.521143 111.689143a34.596571 34.596571 0 0 1 49.005714 0L693.394286 267.702857a34.596571 34.596571 0 0 1-48.786286 48.859429L547.693714 219.574857v577.828572a34.596571 34.596571 0 0 1-69.193143 0v-577.828572L381.586286 316.489143a34.450286 34.450286 0 0 1-48.786286 0 34.669714 34.669714 0 0 1-0.073143-48.859429l155.794286-155.940571z m436.882286 143.945143a34.596571 34.596571 0 0 1-34.596572-34.669715V25.6a20.626286 20.626286 0 0 0-20.626286-20.626286H153.673143a20.626286 20.626286 0 0 0-20.553143 20.626286V221.110857a34.596571 34.596571 0 0 1-69.12 0v-222.939428a62.171429 62.171429 0 0 1 62.098286-62.098286h771.803428a62.171429 62.171429 0 0 1 62.098286 62.171428V221.037714a34.596571 34.596571 0 0 1-34.596571 34.523429z"  horiz-adv-x="1024" />

    
    <glyph glyph-name="zhankai" unicode="&#58942;" d="M921.6 896A102.4 102.4 0 0 0 1024 793.6v-819.2a102.4 102.4 0 0 0-102.4-102.4H102.4A102.4 102.4 0 0 0 0-25.6V793.6A102.4 102.4 0 0 0 102.4 896h819.2z m0-32H102.4a70.4 70.4 0 0 1-70.208-65.376L32 793.6v-819.2a70.4 70.4 0 0 1 65.376-70.208L102.4-96h819.2a70.4 70.4 0 0 1 70.208 65.376L992-25.6V793.6a70.4 70.4 0 0 1-65.376 70.208L921.6 864z m-251.712-483.84c6.176-5.568 6.656-15.04 1.12-21.184l-145.856-162.016a14.976 14.976 0 0 0-11.712-4.96 14.976 14.976 0 0 0-9.728 3.104l-1.984 1.856-145.888 162.016a15.008 15.008 0 0 0 20.064 22.08l2.24-2.016 135.296-150.24 135.264 150.24a15.008 15.008 0 0 0 21.184 1.12z m0 160c6.176-5.568 6.656-15.04 1.12-21.184l-145.856-162.016a14.976 14.976 0 0 0-11.712-4.96 14.976 14.976 0 0 0-9.728 3.104l-1.984 1.856-145.888 162.016a15.008 15.008 0 0 0 20.064 22.08l2.24-2.016 135.296-150.24 135.264 150.24a15.008 15.008 0 0 0 21.184 1.12z"  horiz-adv-x="1024" />

    
    <glyph glyph-name="shouqi" unicode="&#58943;" d="M921.6-128a102.4 102.4 0 0 1 102.4 102.4V793.6A102.4 102.4 0 0 1 921.6 896H102.4A102.4 102.4 0 0 1 0 793.6v-819.2A102.4 102.4 0 0 1 102.4-128h819.2z m0 32H102.4a70.4 70.4 0 0 0-70.208 65.376L32-25.6V793.6a70.4 70.4 0 0 0 65.376 70.208L102.4 864h819.2a70.4 70.4 0 0 0 70.208-65.376L992 793.6v-819.2a70.4 70.4 0 0 0-65.376-70.208L921.6-96z m-251.712 483.84a15.008 15.008 0 0 1 1.12 21.184l-145.856 162.016a14.976 14.976 0 0 1-11.712 4.96 14.976 14.976 0 0 1-9.728-3.104l-1.984-1.856-145.888-162.016a15.008 15.008 0 0 1 20.064-22.08l2.24 2.016 135.296 150.24 135.264-150.24c5.568-6.144 15.04-6.656 21.184-1.12z m0-160a15.008 15.008 0 0 1 1.12 21.184l-145.856 162.016a14.976 14.976 0 0 1-11.712 4.96 14.976 14.976 0 0 1-9.728-3.104l-1.984-1.856-145.888-162.016a15.008 15.008 0 0 1 20.064-22.08l2.24 2.016 135.296 150.24 135.264-150.24c5.568-6.144 15.04-6.656 21.184-1.12z"  horiz-adv-x="1024" />

    
    <glyph glyph-name="leixing" unicode="&#58936;" d="M1006.006857 772.973714L800.256 891.318857a35.84 35.84 0 0 1-35.547429 0L558.957714 772.973714a35.620571 35.620571 0 0 1-17.773714-30.939428v-9.947429l-11.337143 6.509714a35.84 35.84 0 0 1-35.474286 0l-11.483428-6.582857v10.020572a35.84 35.84 0 0 1-17.846857 30.939428L259.145143 891.318857a35.84 35.84 0 0 1-35.474286 0L17.846857 772.973714A35.474286 35.474286 0 0 1 0 742.034286v-237.568c0-12.653714 6.729143-24.502857 17.846857-30.866286l205.824-118.345143a35.547429 35.547429 0 0 1 35.474286 0l11.483428 6.582857v-10.093714a35.84 35.84 0 0 1 17.846858-30.866286l7.314285-4.169143-7.314285-4.096a35.693714 35.693714 0 0 1-17.846858-30.866285v-237.641143a35.84 35.84 0 0 1 17.846858-30.866286l205.750857-118.345143a35.84 35.84 0 0 1 35.547428 0l205.750857 118.345143a35.693714 35.693714 0 0 1 17.846858 30.866286V281.6a35.84 35.84 0 0 1-17.846858 30.866286l-7.314285 4.169143 7.314285 4.169142a35.693714 35.693714 0 0 1 17.846858 30.866286v10.020572l11.337142-6.582858a35.84 35.84 0 0 1 35.547429 0l205.750857 118.491429A35.84 35.84 0 0 1 1024 504.466286V742.034286a35.547429 35.547429 0 0 1-17.993143 30.939428zM241.371429 438.345143L80.822857 530.651429V715.922286L241.371429 808.228571l160.621714-92.306285v-30.427429l-113.517714-65.243428a35.693714 35.693714 0 0 1-17.846858-30.866286v-134.290286l-29.257142-16.749714z m160.621714 187.538286v-95.378286l-79.725714-45.787429V580.022857l79.725714 45.860572z m270.628571-370.468572v-185.270857L512-22.089143l-160.548571 92.233143V255.414857l25.380571 14.628572 117.394286-67.510858a35.84 35.84 0 0 1 35.547428 0l117.394286 67.510858 25.380571-14.628572zM428.617143 299.885714L512 347.867429l83.309714-47.981715L512 251.977143 428.690286 299.885714z m273.042286 61.074286l-25.234286-14.628571L529.773714 430.811429a35.84 35.84 0 0 1-35.547428 0L347.501714 346.404571l-25.234285 14.628572v30.500571l142.628571 82.066286a35.693714 35.693714 0 0 1 17.92 30.866286V672.329143l29.257143 16.822857 29.110857-16.676571v-168.082286c0-12.726857 6.729143-24.502857 17.773714-30.939429l142.774857-82.066285v-30.427429z m0 123.757714l-79.725715 45.933715V626.102857l79.725715-45.933714v-95.451429z m241.371428 45.933715l-160.621714-92.306286-29.110857 16.603428V589.385143a35.766857 35.766857 0 0 1-17.700572 30.866286l-113.664 65.316571v30.354286L782.628571 808.228571l160.548572-92.306285v-185.270857z"  horiz-adv-x="1024" />

    
    <glyph glyph-name="nengli" unicode="&#58937;" d="M373.996308 271.990154a25.993846 25.993846 0 0 0 25.993846-25.993846v-281.521231a25.836308 25.836308 0 0 0-25.836308-25.915077H92.711385a25.993846 25.993846 0 0 0-25.993847 25.993846V246.075077a25.993846 25.993846 0 0 0 25.993847 25.993846h281.206153z m0 66.717538H92.711385C41.511385 338.707692 0 297.117538 0 245.996308v-281.284923C0-86.488615 41.590154-128 92.711385-128H374.153846c51.042462 0 92.632615 41.590154 92.553846 92.711385v281.206153c0 51.2-41.590154 92.790154-92.711384 92.790154z m0 490.653539a25.993846 25.993846 0 0 0 25.993846-26.072616V521.846154a25.836308 25.836308 0 0 0-25.836308-25.993846H92.711385a25.993846 25.993846 0 0 0-25.993847 25.993846V803.367385a25.993846 25.993846 0 0 0 25.993847 25.993846h281.206153z m0 66.638769H92.711385C41.511385 896 0 854.409846 0 803.288615v-281.206153c0-51.2 41.590154-92.790154 92.711385-92.790154H374.153846c51.042462 0 92.632615 41.590154 92.553846 92.711384V803.288615C466.707692 854.488615 425.117538 896 373.996308 896z m557.292307-624.009846a25.993846 25.993846 0 0 0 25.993847-25.993846v-281.521231a25.836308 25.836308 0 0 0-25.757539-25.915077H650.003692a25.993846 25.993846 0 0 0-25.993846 25.993846V246.075077a25.993846 25.993846 0 0 0 25.993846 25.993846h281.284923z m0 66.717538h-281.206153c-51.2 0-92.790154-41.590154-92.790154-92.711384v-281.284923c0-51.2 41.590154-92.711385 92.711384-92.711385h281.521231c51.042462 0 92.553846 41.590154 92.475077 92.711385v281.206153c0 51.2-41.590154 92.790154-92.711385 92.790154z m0 490.653539a25.993846 25.993846 0 0 0 25.993847-26.072616V521.846154a25.836308 25.836308 0 0 0-25.757539-25.993846H650.003692a25.993846 25.993846 0 0 0-25.993846 25.993846V803.367385a25.993846 25.993846 0 0 0 25.993846 25.993846h281.284923z m0 66.638769h-281.206153c-51.2 0-92.790154-41.590154-92.790154-92.711385v-281.206153c0-51.2 41.590154-92.790154 92.711384-92.790154h281.521231c51.042462 0 92.553846 41.590154 92.475077 92.711384V803.288615C1024 854.488615 982.409846 896 931.288615 896z"  horiz-adv-x="1024" />

    
    <glyph glyph-name="shensu" unicode="&#58938;" d="M884.085923 606.812107a373.91205 373.91205 0 0 1-102.707025 179.243861A386.412336 386.412336 0 0 1 659.080783 866.394061 391.748715 391.748715 0 0 1 509.442862 895.780697c-51.609366 0-101.976014-9.868646-149.491719-29.459738a383.780697 383.780697 0 0 1-122.371217-80.411193 373.181039 373.181039 0 0 1-103.07253-180.705883 196.788121 196.788121 0 0 1-94.812107-69.592233 199.785266 199.785266 0 0 1-39.693889-120.105082c0-53.071388 20.833809-103.218732 58.62707-141.158196 27.778412-27.778412 62.282125-46.638492 99.417476-54.387207a40.205597 40.205597 0 0 1 48.904626 39.986294l-1.681325 259.36265A289.480297 289.480297 0 0 0 293.940863 727.867504a306.805254 306.805254 0 0 0 215.428898 86.990292c81.288407 0 157.825243-30.921759 215.355796-86.84409a289.480297 289.480297 0 0 0 88.671617-208.484294v-270.474015a289.480297 289.480297 0 0 0-88.671617-208.484295 300.810965 300.810965 0 0 0-81.946316-57.018846 132.386065 132.386065 0 0 1-36.916048 115.719018 132.093661 132.093661 0 0 1-90.499143 39.10908h-3.36265c-35.454026 0-68.788121-13.889206-93.934895-38.962878-25.146773-25.146773-38.962878-58.480868-38.962878-93.861794 0-34.942319 13.523701-68.130211 38.158766-93.130782 24.561965-25.000571 57.23815-39.035979 92.180469-39.693889h5.921188a387.874358 387.874358 0 0 1 266.161051 109.870931 373.181039 373.181039 0 0 1 82.677327 119.593375c17.398058 40.059395 27.412907 82.604226 29.971445 126.464877 26.462593 9.868646 50.366648 25.439178 70.76185 45.980583a198.323244 198.323244 0 0 1 58.62707 141.085094c-0.146202 88.159909-57.091947 165.939463-139.47687 191.086236zM20.2504 351.543118c2.266134-2.924043 4.751571-5.848087 7.310109-8.77213-2.558538 2.924043-5.043975 5.774986-7.310109 8.77213z m11.330669-25.366076c2.339235-3.581953 4.824672-7.090805 7.310108-10.526557-2.485437 3.435751-4.970874 6.871502-7.310108 10.526557z m78.656767-1.462022c-1.388921 1.388921-2.777841 2.70474-3.947458 4.093661 1.169617-1.388921 2.558538-2.70474 3.947458-4.093661l3.36265-3.216448-3.36265 3.216448z m14.035408-0.365505a117.91205 117.91205 0 0 0-43.12964 91.230154c0 21.199315 5.482581 41.960023 15.716734 60.089092 7.090805 12.573387 16.447744 23.61165 27.412906 32.676185V324.349515z m13.304398-23.099943l-7.310109 7.310108a62.062821 62.062821 0 0 1 7.310109-7.310108z m4.532267 297.009708c2.266134 4.897773 4.824672 9.795545 7.310109 14.693319a146.933181 146.933181 0 0 1-7.310109-14.693319z m17.909766-372.961736a109.286122 109.286122 0 0 0-11.403769 6.579098c3.801256-2.193033 7.529412-4.678469 11.403769-6.579098l1.754426-0.731011-1.754426 0.731011z m9.649343 3.070246h-3.655054 6.579098-2.924044z m33.407196 29.971445V260.02056l-6.944603 259.36265 6.944603-259.36265c0.511708-0.584809 0.511708-1.169617 0-1.681325z m74.709309 550.45117l0 0zM363.313793 857.987436c1.754426 0.731011 3.655054 1.31582 5.336379 2.04683a41.74072 41.74072 0 0 1-5.263278-2.04683z m67.910908-48.758424c2.924043 2.412336 5.921188 5.263278 8.918332 7.310109l-8.918332-7.310109z m343.794403-29.752142A374.131354 374.131354 0 0 1 655.571931 857.987436L650.308653 860.034266l5.263278-2.04683a375.374072 375.374072 0 0 0 125.806967-84.87036l-6.359794 6.359794z m13.158195-13.450599z m12.280983-14.035409z m-412.29012-750.601941v7.310108-7.310108z m123.687036 127.853797h7.310108-7.310108z m36.989149-159.945174a51.390063 51.390063 0 0 0-35.161622-15.643632h-2.485437a51.755568 51.755568 0 1 0 37.72016 15.643632z m23.173044 27.047402c2.924043 2.924043 4.386065 5.994289 4.386065 9.064534 0 1.023415 0 2.04683-0.731011 3.070246 0-1.023415 0.731011-2.04683 0.731011-3.070246 0-3.070246-1.462022-6.140491-4.386065-9.137635z m57.457453-32.529983l1.462021 7.310108-1.462021-7.310108 7.310108 4.678469a85.820674 85.820674 0 0 0-7.310108-4.678469z m145.471159 25.292975c-2.193033-2.266134-4.605368-4.459166-6.871502-6.579097l6.944603 6.579097c2.193033 2.04683 4.386065 4.239863 6.359794 6.359795l-6.359794-6.359795z m49.416333 259.947459v270.474015c0 2.193033 0 4.386065-0.73101 6.579097 0-2.193033 0.731011-4.386065 0.73101-6.579097v-270.474015z m31.287265-143.278127l2.485437 5.848087a127.926899 127.926899 0 0 0-2.485437-5.848087z m0 557.030269l0 0z m26.389492-63.597944c-2.412336 2.558538-4.897773 4.970874-7.310109 7.310108l7.310109-7.310108z m3.289548-70.542548z m28.509424-203.294117l0 0 1.681325 1.608224-1.608224-1.608224z m-6.432896 6.505996a119.22787 119.22787 0 0 0-12.938892-11.184466V512c12.207881-9.137636 22.734437-20.687607 30.702456-34.138207 11.257567-18.786979 17.032553-40.205597 17.032553-62.282124 0.146202-31.506568-12.280982-61.185608-34.796117-83.700743z m103.803541 139.111365c-2.412336 2.485437-4.532267 5.043975-7.310109 7.38321 2.485437-2.339235 4.897773-4.897773 7.310109-7.38321z m-16.082239 28.874929c2.631639-2.412336 4.970874-4.897773 7.310109-7.310109-2.339235 2.558538-4.970874 4.897773-7.310109 7.310109z m8.479726-147.079383c2.631639 2.485437 4.970874 5.117076 7.310109 7.602513-2.04683-2.631639-4.678469-5.117076-7.310109-7.602513z"  horiz-adv-x="1024" />

    
    <glyph glyph-name="jiaose" unicode="&#58939;" d="M603.746011 500.736h300.617143a59.977143 59.977143 0 0 1 59.977143 59.977143V836.022857a59.977143 59.977143 0 0 1-59.977143 59.977143h-300.617143a59.977143 59.977143 0 0 1-59.977142-59.977143v-108.032H294.059154a59.977143 59.977143 0 0 1-59.977143-59.977143v-99.474285a59.977143 59.977143 0 0 1-10.093714-8.192L17.579154 412.525714a59.977143 59.977143 0 0 1 0-84.845714l209.042286-142.262857a59.977143 59.977143 0 0 1 7.533714-6.363429v-79.067428c0-33.133714 26.843429-59.977143 59.977143-59.977143h248.466286v-108.032c0-33.060571 26.916571-59.977143 59.977143-59.977143h300.617143a59.977143 59.977143 0 0 1 59.977142 59.977143V207.286857a59.977143 59.977143 0 0 1-59.977142 59.977143h-300.617143a59.977143 59.977143 0 0 1-59.977143-59.977143v-107.300571H294.059154V173.348571a59.684571 59.684571 0 0 1 17.334857 12.068572l209.92 138.459428a59.977143 59.977143 0 0 1 0 84.845715L308.760869 560.274286a59.757714 59.757714 0 0 1-14.628572 10.752V668.013714h249.636572v-107.300571c0-33.060571 26.916571-59.977143 59.977142-59.977143z m0 335.286857h300.617143v-275.309714h-300.617143V836.022857z m-1.170285-628.736h300.617143v-275.309714h-300.617143V207.286857z m-123.611429 159.012572l-209.92-138.532572L59.928869 370.102857l206.409142 147.894857 212.626286-151.698285z"  horiz-adv-x="1024" />

    
    <glyph glyph-name="user" unicode="&#58940;" d="M863.305143 61.732571A380.342857 380.342857 0 0 1 781.604571 182.857143a380.342857 380.342857 0 0 1-168.448 98.157714 313.782857 313.782857 0 0 1 121.417143 75.702857 312.758857 312.758857 0 0 1 92.306286 222.500572A312.32 312.32 0 0 1 734.646857 801.645714 312.758857 312.758857 0 0 1 512.146286 893.805714a312.32 312.32 0 0 1-222.573715-92.16A312.758857 312.758857 0 0 1 197.485714 579.218286a312.32 312.32 0 0 1 92.16-222.500572A313.782857 313.782857 0 0 1 411.062857 281.014857 380.342857 380.342857 0 0 1 242.614857 182.857143a380.342857 380.342857 0 0 1-111.616-269.604572 41.106286 41.106286 0 1 1 82.285714 0 296.96 296.96 0 0 0 87.552 211.382858 296.96 296.96 0 0 0 211.382858 87.625142 296.96 296.96 0 0 0 211.382857-87.552 296.96 296.96 0 0 0 87.625143-211.382857 41.106286 41.106286 0 1 1 82.285714 0 383.414857 383.414857 0 0 1-30.208 148.406857zM279.552 579.218286A232.740571 232.740571 0 0 0 512 811.666286a232.740571 232.740571 0 0 0 232.448-232.448A232.594286 232.594286 0 0 0 512 346.697143a232.740571 232.740571 0 0 0-232.448 232.448z"  horiz-adv-x="1024" />

    
    <glyph glyph-name="check" unicode="&#58935;" d="M896.384 896C966.848 896 1024 838.72 1024 768.384v-768.768A127.68 127.68 0 0 0 896.384-128H127.616A127.68 127.68 0 0 0 0-0.384V768.384C0 838.848 57.28 896 127.616 896h768.768z m-113.984-298.944a30.016 30.016 0 0 1-42.368-2.24L403.84 221.504 284.416 354.112l-4.48 4.096a30.016 30.016 0 0 1-40.128-44.16l141.376-156.992 4.096-3.84a29.888 29.888 0 0 1 27.328-4.672l1.344 0.384a29.888 29.888 0 0 1 12.864 8.384l357.76 397.376a30.016 30.016 0 0 1-2.176 42.368z"  horiz-adv-x="1024" />

    
    <glyph glyph-name="mail1" unicode="&#58932;" d="M1093.936317 896H167.043839C118.135671 896 78.520843 856.306414 78.520843 807.398246v-770.244577c0-48.986925 39.614828-88.601754 88.601754-88.601754h926.734963c48.986925 0 88.601754 39.614828 88.601754 88.601754v770.244577c0 48.829411-39.772343 88.601754-88.601754 88.601754z m-95.059836-88.601754l-329.992309-275.807414-1.890171-1.575142-1.732657-1.890171a43.94647 43.94647 0 0 0-31.896631-13.782495H633.207199a44.025227 44.025227 0 0 0-31.739117 13.38871l-1.732657 1.732656-336.922935 277.933856h736.142748z m94.981079-770.244577H167.122597V771.327488L539.722504 464.253499c25.123519-24.808491 58.12275-38.512229 93.563452-38.512228h0.5513A131.524381 131.524381 0 0 1 727.715736 465.041071l366.378096 306.128903v-734.016305h-0.157515z"  horiz-adv-x="1260" />

    
    <glyph glyph-name="phone" unicode="&#58933;" d="M747.861333 896c42.325333 0 76.8-34.338133 76.8-76.8v-803.293867c0-42.461867-34.338133-76.8-76.8-76.8h-534.528A76.731733 76.731733 0 0 0 136.533333 15.906133V819.2C136.533333 861.661867 170.871467 896 213.333333 896z m0-711.543467h-534.528v-168.618666h534.528v168.618666z m-231.424-43.690666a38.365867 38.365867 0 1 0 0-76.731734h-66.082133a38.365867 38.365867 0 1 0 0 76.731734z m231.424 678.434133h-534.528v-557.943467h534.528V819.2z"  horiz-adv-x="1024" />

    
    <glyph glyph-name="lock" unicode="&#58934;" d="M512 896a342.561642 342.561642 0 0 0 140.573104-30.025323c43.127282-19.448221 81.750766-47.085166 114.642143-82.023724a383.778222 383.778222 0 0 0 77.588165-120.920165c18.834066-46.880448 28.455818-96.55871 28.2511-147.738238v-38.487006l-0.272958-20.403571v-442.464081c0.272957-40.943623-31.390111-74.244436-70.423031-74.244436H221.30028c-39.03292 0-70.695988 33.300813-70.695988 74.244436V515.29255c0 51.384246 9.553512 100.994269 28.455817 147.738238a382.140477 382.140477 0 0 0 77.519926 120.920165 358.734373 358.734373 0 0 0 114.710382 81.887245A341.469812 341.469812 0 0 0 512 896zM800.652539 411.09103H223.48394v-397.084899c0-0.682394 0.068239-1.160069 0.204718-1.501266h576.759163a4.913235 4.913235 0 0 1 0.204718 1.501266V411.09103zM512 362.641077a62.643743 62.643743 0 0 0 33.914967-115.119819v-95.603358a33.778489 33.778489 0 0 0-67.556977 0V247.31654A62.643743 62.643743 0 0 0 512 362.641077z m-0.136479 460.615754a264.768759 264.768759 0 0 1-110.547781-23.88378l-1.364787-0.614155c-33.710249-15.012662-63.872051-36.84926-90.417167-64.827402-26.613355-27.978142-47.904038-60.937758-62.780221-97.991737a321.816873 321.816873 0 0 1-23.269625-120.578968v-31.663068h576.827402v31.594829c0 41.967213-7.779288 82.501399-23.201386 120.647207a311.171531 311.171531 0 0 1-62.780221 98.128216 293.702252 293.702252 0 0 1-91.781954 65.509796 271.660936 271.660936 0 0 1-110.68426 23.610822z"  horiz-adv-x="1024" />

    
    <glyph glyph-name="mengban" unicode="&#58930;" d="M1360.989091 18.059636a76.334545 76.334545 0 0 1-16.663273 47.290182L755.525818 797.416727a75.589818 75.589818 0 0 1-117.666909 0L52.224 68.421818a75.403636 75.403636 0 0 1 117.573818-94.487273l526.987637 655.639273 529.966545-658.990545a75.403636 75.403636 0 0 1 134.144 47.383272z"  horiz-adv-x="1396" />

    
    <glyph glyph-name="mengban1" unicode="&#58931;" d="M1360.989091 750.033455a76.334545 76.334545 0 0 0-16.663273-47.383273L755.525818-29.323636a75.589818 75.589818 0 0 0-117.666909 0L52.224 699.578182a75.403636 75.403636 0 0 0 117.573818 94.487273l526.987637-655.639273 529.966545 658.897454a75.403636 75.403636 0 0 0 134.144-47.290181z"  horiz-adv-x="1396" />

    
    <glyph glyph-name="tianjia" unicode="&#58929;" d="M984.689778 433.322667H560.014222V847.36a47.957333 47.957333 0 1 1-96.028444 0v-414.037333h-415.288889a47.957333 47.957333 0 1 1 0-96.028445h415.288889v-415.288889a47.957333 47.957333 0 1 1 96.028444 0v415.288889h424.675556a47.957333 47.957333 0 1 1 0 96.028445z"  horiz-adv-x="1080" />

    
    <glyph glyph-name="cebianlanzhankai" unicode="&#58928;" d="M1076.032 24a59.968 59.968 0 1 0 0-120H76.032a59.968 59.968 0 1 0 0 120h999.936z m-170.048 557.952c2.432 0 4.8-0.832 6.592-2.432l206.464-180.48a19.968 19.968 0 0 0 0-30.08l-206.464-179.904A9.984 9.984 0 0 0 896 196.48V571.968c0 5.504 4.48 9.984 9.984 9.984z m-230.016-137.92a59.968 59.968 0 1 0 0-120H76.032a59.968 59.968 0 1 0 0 119.936h599.936zM1076.032 864a59.968 59.968 0 1 0 0-120H76.032a60.032 60.032 0 0 0 0 120h1000.064z"  horiz-adv-x="1152" />

    
    <glyph glyph-name="cebianlanshouqi" unicode="&#58927;" d="M76.032 24a59.968 59.968 0 1 1 0-120h999.936a59.968 59.968 0 1 1 0 120H76.032z m169.984 557.952a9.984 9.984 0 0 1-6.592-2.432L32.96 399.04a19.968 19.968 0 0 1 0-30.08l206.464-179.904A9.984 9.984 0 0 1 256 196.48V571.968a9.984 9.984 0 0 1-9.984 9.984z m230.016-137.92a59.968 59.968 0 1 1 0-120h600a59.968 59.968 0 1 1 0 119.936H476.032zM76.032 864a59.968 59.968 0 1 1 0-120h999.936a60.032 60.032 0 0 1 0 120H76.032z"  horiz-adv-x="1152" />

    
    <glyph glyph-name="solve" unicode="&#58922;" d="M640-56H384A35.968 35.968 0 1 1 384-128h256a35.968 35.968 0 1 1 0 72z m256 577.984C896 728.576 724.096 896 512 896S128 728.576 128 521.984c0-138.368 77.184-259.264 192-323.84v-62.144C320 96.192 352.192 64 392 64h240C671.808 64 704 96.192 704 136v62.08c114.816 64.64 192 185.536 192 323.904zM733.312 309.12a313.6 313.6 0 0 0-99.2-65.28c-0.704-0.256-1.408-0.448-1.984-0.768v-107.072H392v107.072c-0.64 0.32-1.408 0.512-1.984 0.832a309.12 309.12 0 0 0-165.76 161.216 291.072 291.072 0 0 0-24.128 116.864c0 40.64 8.064 79.936 24.192 116.928a301.632 301.632 0 0 0 66.496 96 313.6 313.6 0 0 0 99.2 65.216A318.912 318.912 0 0 0 512 824.128c42.368 0 83.392-8.128 121.984-24a309.12 309.12 0 0 0 165.76-161.28c16-36.928 24.128-76.224 24.128-116.864 0-40.576-8.064-79.872-24.192-116.864a299.712 299.712 0 0 0-66.368-96z"  horiz-adv-x="1024" />

    
    <glyph glyph-name="product" unicode="&#58923;" d="M1009.578667 471.637333l-0.256 1.024L859.733333 852.821333A51.456 51.456 0 0 1 810.666667 889.088H204.288a51.456 51.456 0 0 1-49.237333-36.778667L15.189333 475.904l-0.426666-0.853333-0.256-1.109334a49.493333 49.493333 0 0 1-1.28-19.797333l-0.256-6.4v-487.850667c0-44.629333 36.352-81.066667 81.066666-81.066666h836.266667c44.629333 0 81.066667 36.437333 81.152 81.066666V447.829333l-0.085333 4.949334a51.968 51.968 0 0 1-1.706667 18.773333zM615.253333 528.896l-0.341333-20.906667C613.717333 448.170667 572.416 407.893333 512 407.893333c-29.44 0-54.784 9.386667-73.045333 27.477334-18.261333 17.92-28.330667 43.008-28.842667 72.618666l-0.341333 20.906667H135.338667l105.984 257.706667h532.309333l108.885333-257.706667H615.253333z m-499.968-102.4h209.749334c32.426667-76.117333 101.290667-121.002667 187.221333-121.002667 44.885333 0 86.613333 12.544 120.32 36.266667a197.12 197.12 0 0 1 67.669333 84.736h208.64v-445.184h-793.6V426.496z"  horiz-adv-x="1024" />

    
    <glyph glyph-name="news" unicode="&#58924;" d="M918.357333 871.594667H105.642667a81.322667 81.322667 0 0 1-81.237334-81.237334v-812.714666c0-44.8 36.437333-81.237333 81.237334-81.237334h812.714666a81.322667 81.322667 0 0 1 81.237334 81.237334V790.357333a81.322667 81.322667 0 0 1-81.237334 81.237334z m-157.952-82.517334v-235.946666l-43.690666 43.861333a40.96 40.96 0 0 1-29.610667 11.946667 40.021333 40.021333 0 0 1-29.610667-11.946667l-43.690666-43.861333V789.077333h146.602666z m157.866667-812.8H105.728V789.077333h426.922667V453.12c0-0.426667 0-0.682667 0.170666-0.853333l0.085334-1.109334 0.170666-1.109333 0.085334-0.853333 0.256-1.194667 0.085333-0.597333 0.256-1.28 0.170667-0.682667 0.341333-1.28 0.256-0.597333 0.426667-1.109334 0.256-0.853333 0.341333-0.938667 0.426667-0.853333 0.341333-0.938667 0.426667-1.024 0.341333-0.768 0.512-1.024 0.426667-0.597333 0.597333-1.194667 0.341333-0.512 0.853334-1.109333c0-0.170667 0.170667-0.426667 0.341333-0.512a7.082667 7.082667 0 0 1 0.768-1.024c0.085333-0.256 0.256-0.341333 0.512-0.597333l0.768-0.853334 0.597333-0.853333 0.682667-0.768c0.853333-1.024 1.877333-1.877333 2.730667-2.730667l0.853333-0.682666a3.413333 3.413333 0 0 1 0.682667-0.597334c0.256-0.256 0.682667-0.512 0.853333-0.853333 0.341333 0 0.426667-0.341333 0.682667-0.426667a7.082667 7.082667 0 0 0 1.024-0.853333l0.512-0.341333 1.109333-0.682667 0.512-0.426667 1.194667-0.597333 0.597333-0.426667c0.426667-0.085333 0.768-0.341333 1.024-0.512l0.768-0.341333 1.024-0.426667 0.853333-0.341333 0.853334-0.426667 1.109333-0.341333 0.682667-0.256 1.194666-0.426667c0.256-0.085333 0.512-0.085333 0.597334-0.256a15.957333 15.957333 0 0 1 1.28-0.341333l0.682666-0.085333c0.341333-0.170667 0.853333-0.256 1.194667-0.256l0.682667-0.170667 1.28-0.256 0.768-0.085333 1.109333-0.170667 1.024-0.085333c0.256 0 0.597333 0 0.853333-0.170667h4.096c0.426667 0 0.682667 0 0.853334 0.170667l1.024 0.085333 1.194666 0.170667 0.768 0.085333 1.28 0.256 0.597334 0.170667 1.28 0.256 0.597333 0.085333 1.28 0.341333 0.682667 0.256 1.109333 0.426667 0.768 0.256 1.024 0.341333 0.853333 0.426667 0.853334 0.341333a3.84 3.84 0 0 1 1.109333 0.512l0.768 0.426667c0.341333 0.085333 0.682667 0.341333 0.938667 0.512l0.682666 0.341333 1.109334 0.682667 0.512 0.341333 1.194666 0.768 0.512 0.341334a7.082667 7.082667 0 0 1 1.024 0.853333c0.170667 0 0.341333 0.170667 0.597334 0.426667l0.853333 0.853333 0.853333 0.597333 0.682667 0.597334 1.450667 1.365333 85.162666 85.248 85.248-85.248 1.365334-1.365333 0.768-0.597334 0.768-0.682666 0.853333-0.768 0.682667-0.512 1.024-0.768 0.512-0.341334 1.109333-0.768 0.512-0.341333 1.109333-0.682667 0.682667-0.341333 1.024-0.512 0.768-0.426667 0.938667-0.341333 0.853333-0.426667 0.938667-0.341333 1.024-0.426667 0.853333-0.256 1.109333-0.341333 0.597334-0.256 1.28-0.341333 0.597333-0.170667 1.28-0.256 0.682667-0.085333c0.341333-0.170667 0.853333-0.170667 1.194666-0.256l0.853334-0.170667 1.109333-0.085333c0.341333 0 0.597333 0 1.024-0.170667l0.853333-0.085333a21.76 21.76 0 0 1 4.096 0l0.853334 0.085333c0.426667 0 0.682667 0 1.024 0.170667l1.109333 0.085333c0.256 0 0.512 0 0.853333 0.170667 0.341333 0 0.853333 0.085333 1.194667 0.256l0.682667 0.085333c0.341333 0.170667 0.853333 0.170667 1.28 0.256l0.597333 0.170667 1.28 0.341333c0.256 0.085333 0.512 0.085333 0.597333 0.256l1.194667 0.341333 0.768 0.256 1.024 0.426667 0.853333 0.341333 0.853334 0.426667 1.024 0.341333 0.853333 0.426667c0.341333 0.085333 0.682667 0.341333 0.938667 0.512l0.682666 0.341333 1.109334 0.682667 0.512 0.341333 1.109333 0.768 0.512 0.341334a7.082667 7.082667 0 0 1 1.024 0.853333 2.218667 2.218667 0 0 1 0.682667 0.426667l0.853333 0.853333 0.768 0.597333 0.768 0.597334c1.024 0.853333 1.877333 1.877333 2.816 2.816l0.597333 0.768a3.413333 3.413333 0 0 1 0.682667 0.768l0.682667 0.853333a2.218667 2.218667 0 0 0 0.512 0.682667l0.853333 0.938666c0 0.170667 0.170667 0.426667 0.341333 0.512l0.768 1.194667 0.341334 0.512 0.682666 1.109333 0.341334 0.682667 0.512 1.024 0.426666 0.682667a3.84 3.84 0 0 0 0.426667 1.024l0.426667 0.853333 0.341333 0.938667 0.426667 1.024 0.256 0.768 0.341333 1.109333 0.256 0.682667a15.957333 15.957333 0 0 1 0.426667 1.28l0.085333 0.597333a4.522667 4.522667 0 0 1 0.256 1.28l0.170667 0.597333 0.256 1.28 0.085333 0.853334 0.170667 1.109333 0.085333 1.024c0 0.256 0 0.597333 0.170667 0.853333V789.077333h76.544v-812.8h0.512zM457.386667 505.941333a40.618667 40.618667 0 0 0-40.704-40.704H228.693333a40.618667 40.618667 0 1 0 0 81.237334h187.904c22.528 0 40.704-18.090667 40.704-40.533334zM842.752 316.586667a40.618667 40.618667 0 0 0-40.618667-40.618667H232.106667a40.618667 40.618667 0 1 0 0 81.237333h570.282666c22.357333 0 40.448-18.090667 40.448-40.618666z m-1.109333-173.909334a40.618667 40.618667 0 0 0-40.618667-40.704H232.021333a40.618667 40.618667 0 1 0 0 81.237334h569.173334c22.272 0 40.448-18.176 40.448-40.533334z"  horiz-adv-x="1024" />

    
    <glyph glyph-name="renzheng" unicode="&#58925;" d="M512 896a512 512 0 0 0 512-512 512 512 0 0 0-512-512 512 512 0 0 0-512 512 512 512 0 0 0 512 512z m0-72a437.76 437.76 0 0 1-311.232-128.896A437.44 437.44 0 0 1 72 384a437.76 437.76 0 0 1 128.896-311.232A437.44 437.44 0 0 1 512-56c59.52-0.064 117.12 11.52 171.264 34.56a437.76 437.76 0 0 1 139.904 94.272A438.016 438.016 0 0 1 952 384a437.76 437.76 0 0 1-128.896 311.232A437.44 437.44 0 0 1 512 824z m209.28-233.6c14.08 14.08 36.8 14.08 50.816-0.128 14.08-13.952 14.08-36.8 0.128-50.88l-359.552-360.576a35.648 35.648 0 0 0-26.688-11.776 36.032 36.032 0 0 0-31.296 18.176l-108.8 190.464a35.904 35.904 0 1 0 62.528 35.712l85.376-149.504z"  horiz-adv-x="1024" />

    
    <glyph glyph-name="xuqiu" unicode="&#58926;" d="M512 895.99808a540.798986 540.798986 0 0 0 198.463628-37.31193 513.279038 513.279038 0 0 0 162.559695-102.143809 476.159107 476.159107 0 0 0 110.335793-152.383714c26.87995-59.455889 40.575924-122.49577 40.511924-187.583648a449.727157 449.727157 0 0 0-40.639924-187.519648 478.079104 478.079104 0 0 0-110.271793-152.319715A513.279038 513.279038 0 0 0 710.399628-25.600192a540.798986 540.798986 0 0 0-198.527628-37.24793 542.910982 542.910982 0 0 0-159.7437 23.743955l-148.287722-84.287842a36.479932 36.479932 0 0 0-33.983936-0.767998 35.775933 35.775933 0 0 0-19.519964 27.903947l-23.039957 196.543632C45.056876 187.967408 0.00096 299.775198 0.00096 416.638979c0 65.023878 13.695974 128.06376 40.575924 187.519648a478.079104 478.079104 0 0 0 110.271793 152.319715A513.279038 513.279038 0 0 0 313.472372 858.75015 540.798986 540.798986 0 0 0 512 895.99808z m0-71.999865a467.839123 467.839123 0 0 1-171.967678-32.319939 442.87917 442.87917 0 0 1-140.031737-87.871836A405.631239 405.631239 0 0 1 106.240761 574.334683a378.75129 378.75129 0 0 1-34.175936-157.695704c0-101.887809 40.895923-199.487626 115.071784-274.687485a35.839933 35.839933 0 0 0 10.111981-21.119961l18.175966-154.62371 114.879785 65.279878a35.967933 35.967933 0 0 0 29.439944 2.815995c48.575909-16.639969 99.839813-24.959953 152.127715-24.959954 59.711888 0 117.631779 10.75198 172.159677 32.25594a442.87917 442.87917 0 0 1 139.967738 87.871835 405.631239 405.631239 0 0 1 93.759824 129.471757 380.415287 380.415287 0 0 1 0.128 315.391409 406.079239 406.079239 0 0 1-93.823824 129.471757A441.087173 441.087173 0 0 1 684.159677 791.678276 468.799121 468.799121 0 0 1 512 823.998215zM292.032412 471.038877a54.975897 54.975897 0 1 0 0-109.951794 54.975897 54.975897 0 0 0 0 109.951794z m439.935176 0a55.039897 55.039897 0 1 0 0-110.079794 55.039897 55.039897 0 0 0 0 110.079794zM512 471.038877a55.039897 55.039897 0 1 0-0.064-110.079794A55.039897 55.039897 0 0 0 512 471.038877z"  horiz-adv-x="1024" />

    
    <glyph glyph-name="update" unicode="&#58919;" d="M488.521143 821.906286a34.596571 34.596571 0 0 0 49.005714 0l155.794286-155.940572a34.596571 34.596571 0 0 0-48.786286-48.859428L547.620571 714.020571v-577.828571a34.596571 34.596571 0 0 0-69.193142 0v577.828571L381.513143 617.106286a34.450286 34.450286 0 0 0-48.786286 0 34.669714 34.669714 0 0 0-0.146286 48.859428L488.594286 821.906286z m436.882286-566.272a34.596571 34.596571 0 0 1-34.596572-34.669715V25.6a20.626286 20.626286 0 0 0-20.626286-20.626286H153.673143a20.626286 20.626286 0 0 0-20.553143 20.626286V221.110857a34.596571 34.596571 0 0 1-69.12 0v-222.939428a62.171429 62.171429 0 0 1 62.098286-62.098286h771.803428a62.171429 62.171429 0 0 1 62.098286 62.171428V221.037714a34.596571 34.596571 0 0 1-34.596571 34.523429z"  horiz-adv-x="1024" />

    
    <glyph glyph-name="information" unicode="&#58920;" d="M512 896a512 512 0 0 1-512-512 512 512 0 0 1 512-512 512 512 0 0 1 512 512 512 512 0 0 1-512 512z m0-192a31.963429 31.963429 0 1 0 0-63.926857 31.963429 31.963429 0 0 0 0 63.926857z m95.524571-640H416.475429a31.963429 31.963429 0 1 0 0 64h62.025142V450.56h-62.976a31.963429 31.963429 0 1 0 0 63.926857h94.939429c17.700571 0 32.036571-14.262857 32.036571-31.963428V128h65.024c17.700571 0 32.914286-14.336 32.914286-32.036571 0-17.627429-15.213714-31.963429-32.914286-31.963429z"  horiz-adv-x="1024" />

    
    <glyph glyph-name="delate" unicode="&#58921;" d="M133.924571-117.686857a82.724571 82.724571 0 0 0-7.314285 7.314286c2.706286-2.633143 4.900571-5.266286 7.314285-7.314286z m-11.044571 6.290286a120.685714 120.685714 0 0 0-7.314286 7.314285c2.340571-2.633143 4.827429-4.973714 7.314286-7.314285zM1013.028571 736.548571a43.154286 43.154286 0 0 1-29.988571 12.141715h-210.724571v65.609143a80.457143 80.457143 0 0 1-80.457143 80.457142H332.068571a80.457143 80.457143 0 0 1-80.457142-80.457142v-65.609143H39.862857a40.96 40.96 0 0 1 0-81.773715h36.059429v-711.241142a80.457143 80.457143 0 0 1 80.457143-80.457143h722.651428a80.457143 80.457143 0 0 1 80.457143 80.457143V666.989714h23.478857c22.454857 0 41.984 18.285714 41.984 40.886857a40.228571 40.228571 0 0 1-11.922286 28.745143z m-681.033142 77.531429h359.424v-66.121143H332.068571v66.121143z m546.889142-858.331429H156.379429V667.062857h722.505142v-711.168z m-367.469714 574.171429a41.033143 41.033143 0 0 1-41.106286-41.033143v-381.293714a41.033143 41.033143 0 1 1 82.212572 0V488.96a41.106286 41.106286 0 0 1-41.106286 41.106286z m-222.573714 0a41.033143 41.033143 0 0 1-41.106286-41.033143v-381.293714a41.033143 41.033143 0 1 1 82.212572 0V488.96a41.106286 41.106286 0 0 1-41.106286 41.106286z m442.88 0a41.033143 41.033143 0 0 1-41.033143-41.033143v-381.293714a41.033143 41.033143 0 1 1 82.139429 0V488.96a41.106286 41.106286 0 0 1-41.106286 41.106286z"  horiz-adv-x="1024" />

    
    <glyph glyph-name="guanbi" unicode="&#58917;" d="M589.970286 384.146286l356.717714 356.425143a54.857143 54.857143 0 0 1 0 77.824 54.857143 54.857143 0 0 1-77.824 0L512 462.116571 155.136 818.541714a54.857143 54.857143 0 0 1-77.824 0 54.857143 54.857143 0 0 1 0-77.824l356.717714-356.425143-356.717714-356.571428a54.857143 54.857143 0 0 1 38.912-93.988572 54.710857 54.710857 0 0 1 38.912 16.091429L512 306.322286l356.864-356.571429c10.752-10.825143 24.795429-16.091429 38.912-16.091428a54.857143 54.857143 0 0 1 38.912 93.915428L589.970286 384.146286z"  horiz-adv-x="1024" />

    
    <glyph glyph-name="yes" unicode="&#58909;" d="M512 896a512 512 0 0 1-512-512 512 512 0 0 1 512-512 512 512 0 0 1 512 512 512 512 0 0 1-512 512z m260.315429-356.425143L412.818286 178.907429l-0.438857-0.438858a35.913143 35.913143 0 0 0-57.636572 6.802286L245.979429 375.734857a35.84 35.84 0 0 0 13.385142 49.005714 35.84 35.84 0 0 0 49.078858-13.312L393.801143 261.851429l327.533714 328.411428a35.986286 35.986286 0 0 0 50.980572-50.761143z"  horiz-adv-x="1024" />

    
    <glyph glyph-name="wrong" unicode="&#58911;" d="M512 896a512 512 0 0 1-512-512 512 512 0 0 1 512-512 512 512 0 0 1 512 512 512 512 0 0 1-512 512z m241.005714-703.268571a32.182857 32.182857 0 0 0 0.512-45.348572 32.182857 32.182857 0 0 0-45.348571-0.512L512 339.236571 315.830857 147.017143a31.963429 31.963429 0 1 0-44.836571 45.787428L466.285714 384l-195.291428 191.268571a32.182857 32.182857 0 0 0-0.512 45.348572 32.182857 32.182857 0 0 0 45.348571 0.512L512 428.763429 708.169143 620.982857a31.963429 31.963429 0 1 0 44.836571-45.787428L557.714286 384l195.291428-191.268571z"  horiz-adv-x="1024" />

    
    <glyph glyph-name="key" unicode="&#58913;" d="M925.041112 332.58624a328.541785 328.541785 0 0 0-433.724792-27.299406l-421.023998-421.169985a40.949109 40.949109 0 0 0-58.10248 0 40.949109 40.949109 0 0 0 0 58.029486l421.169985 421.169985a328.541785 328.541785 0 0 0 491.827271 433.724792 328.468792 328.468792 0 0 0-0.145986-464.527865z m-58.029487 406.425385a246.278601 246.278601 0 0 1-348.395899 0 246.278601 246.278601 0 0 1 0-348.395899 246.278601 246.278601 0 1 1 348.395899 348.395899zM328.249813 140.614479l87.15372-87.15372a40.949109 40.949109 0 1 0-58.029487-58.029486l-87.15372 87.080726 58.029487 58.10248z m-22.62785-196.789303a40.949109 40.949109 0 1 0-58.029487-58.029487l-87.153719 87.15372 58.102479 58.029486 87.080727-87.153719z"  horiz-adv-x="1024" />

    
    <glyph glyph-name="right" unicode="&#58901;" d="M230.066916-127.601778c12.8 0 25.770667 4.266667 36.579555 12.8l565.020445 454.542222a58.311111 58.311111 0 0 1 0 90.794667L269.035804 882.688A58.254222 58.254222 0 0 1 196.104249 791.893333L702.244693 385.137778 193.544249-24.007111a58.254222 58.254222 0 0 1 36.522667-103.594667z"  horiz-adv-x="1024" />

    
    <glyph glyph-name="left" unicode="&#58896;" d="M793.933084-127.601778c-12.8 0-25.770667 4.266667-36.579555 12.8L192.333084 339.740444a58.311111 58.311111 0 0 0 0 90.794667L754.964196 882.688a58.254222 58.254222 0 0 0 72.931555-90.794667L321.755307 385.137778l508.700444-409.201778a58.254222 58.254222 0 0 0-36.522667-103.594667z"  horiz-adv-x="1024" />

    
    <glyph glyph-name="mail" unicode="&#58897;" d="M1047.104 864.128H105.728C56 864.128 15.744 823.872 15.744 774.144V-8.32c0-49.728 40.256-89.984 89.984-89.984h941.44c49.728 0 89.984 40.256 89.984 89.984V774.144c0 49.6-40.384 89.984-90.048 89.984z m-96.448-89.984L615.488 494.016l-1.984-1.664-1.728-1.856a44.672 44.672 0 0 0-32.384-14.016h-0.256a44.672 44.672 0 0 0-32.256 13.632l-1.728 1.792-342.272 282.24h747.776zM1047.04-8.32H105.728V737.472L484.224 425.6a133.76 133.76 0 0 1 95.04-39.04h0.64a133.632 133.632 0 0 1 95.232 39.808l372.096 311.04v-745.6h-0.128z"  horiz-adv-x="1152" />

    
    <glyph glyph-name="safe" unicode="&#58898;" d="M512 881.777778L85.333333 739.555556v-426.666667a426.666667 426.666667 0 0 1 426.666667-426.666667 426.666667 426.666667 0 0 1 426.666667 426.666667v426.666667L512 881.777778z m346.680889-568.888889a346.680889 346.680889 0 0 0-693.361778 0V679.537778L512 801.792l346.680889-122.254222v-366.648889zM363.52 424.96a39.879111 39.879111 0 0 1-56.604444 0 39.879111 39.879111 0 0 1 0-56.490667l143.815111-143.815111 2.275555-2.275555c14.791111-14.791111 38.684444-14.791111 53.475556 0l248.376889 248.263111c14.791111 14.791111 14.791111 38.684444 0 53.475555l-3.128889 3.128889a37.774222 37.774222 0 0 1-53.475556 0l-218.510222-218.453333L363.52 424.96z"  horiz-adv-x="1024" />

    
    <glyph glyph-name="exit" unicode="&#58899;" d="M511.998976 895.997952a510.309379 510.309379 0 0 0 361.983276-150.0157 510.462979 510.462979 0 0 0 109.721381-162.815674A506.213388 506.213388 0 0 0 1023.997952 383.998976a510.309379 510.309379 0 0 0-150.0157-361.983276A509.438981 509.438981 0 0 0 511.998976-127.8976a507.237386 507.237386 0 0 0-231.218738 54.98869 516.350967 516.350967 0 0 0-176.486047 147.199705 35.993528 35.993528 0 0 0 57.190286 43.622313 444.517511 444.517511 0 0 1 151.705297-126.514947 435.14793 435.14793 0 0 1 198.809202-47.411105 439.346321 439.346321 0 0 1 311.192978 128.921342A437.759124 437.759124 0 0 1 952.010896 383.998976a439.346321 439.346321 0 0 1-128.921342 311.192978A437.759124 437.759124 0 0 1 511.998976 824.010896c-69.88786 0-136.703727-15.871968-198.604403-47.308705A443.544713 443.544713 0 0 1 161.689277 650.238444a35.891128 35.891128 0 1 0-57.190286 43.622312 514.91737 514.91737 0 0 0 176.281247 147.148506A507.237386 507.237386 0 0 0 511.998976 895.997952zM442.879114 545.278653a35.891128 35.891128 0 0 0 50.943898 0l135.782129-135.679728a36.249528 36.249528 0 0 0 0-51.199898l-135.782129-135.782128a36.044728 36.044728 0 0 0-50.943898 50.892698l74.342252 74.291051-481.125438 0.1024A36.147128 36.147128 0 0 0 0.1024 383.998976c0 19.91676 16.076768 35.993528 35.993528 35.993528l481.125438 0.1024L442.879114 494.385955a35.891128 35.891128 0 0 0 0 50.892698z"  horiz-adv-x="1024" />

    
    <glyph glyph-name="smile-o" unicode="&#58900;" d="M512 896C229.2224 896 0 666.7776 0 384s229.2224-512 512-512 512 229.2224 512 512S794.7776 896 512 896z m311.0912-823.0912a437.76 437.76 0 0 0-139.8784-94.3104 435.7632 435.7632 0 0 0-171.2128-34.6112 437.4528 437.4528 0 0 0-311.0912 128.8192 437.76 437.76 0 0 0-94.3104 139.8784A436.6336 436.6336 0 0 0 71.9872 384a437.4528 437.4528 0 0 0 128.8192 311.0912 437.76 437.76 0 0 0 139.8784 94.3104A436.6336 436.6336 0 0 0 512 824.0128a437.4528 437.4528 0 0 0 311.0912-128.8192 437.76 437.76 0 0 0 94.3104-139.8784c23.04-54.272 34.6112-111.9232 34.6112-171.3152a437.4528 437.4528 0 0 0-128.9216-311.0912z m-182.784 257.8944a35.9936 35.9936 0 0 1-35.9936-35.9936c0-50.8928-41.4208-92.3136-92.3136-92.3136a92.416 92.416 0 0 0-92.3136 92.3136 35.9936 35.9936 0 1 1-71.9872 0c0-90.624 73.728-164.352 164.3008-164.352 90.624 0 164.3008 73.728 164.3008 164.352a35.9936 35.9936 0 0 1-35.9936 35.9936zM194.2016 513.536a60.0064 60.0064 0 1 1 120.0128 0 60.0064 60.0064 0 0 1-120.0128 0z m515.2768 0a60.0064 60.0064 0 1 1 120.0128 0 60.0064 60.0064 0 0 1-120.0128 0z"  horiz-adv-x="1024" />

    


  </font>
</defs>
</svg>
